<?xml version="1.0"?>
<svg width="513.749" height="513.749" xmlns="http://www.w3.org/2000/svg" xmlns:svg="http://www.w3.org/2000/svg" enable-background="new 0 0 513.749 513.749" version="1.1" xml:space="preserve">
 <g class="layer">
  <title>Layer 1</title>
  <g id="svg_1">
   <path d="m504.35,459.06l-99.43,-99.48c74.4,-99.42 54.11,-240.34 -45.32,-314.74s-240.34,-54.12 -314.74,45.31s-54.12,240.34 45.31,314.75c79.87,59.76 189.57,59.76 269.44,0l99.47,99.47c12.5,12.5 32.77,12.5 45.27,0c12.5,-12.5 12.5,-32.77 0,-45.27l0,-0.04zm-278.63,-73.36c-88.37,0 -160,-71.64 -160,-160s71.63,-160 160,-160s160,71.63 160,160c-0.1,88.32 -71.68,159.9 -160,160z" fill="#ffffff" id="svg_2"/>
  </g>
 </g>
</svg>